<?xml version="1.0" standalone="no"?>
<!DOCTYPE svg PUBLIC "-//W3C//DTD SVG 20010904//EN"
 "http://www.w3.org/TR/2001/REC-SVG-20010904/DTD/svg10.dtd">
<svg version="1.0" xmlns="http://www.w3.org/2000/svg"
 width="23.910336pt" height="11.955168pt" viewBox="0 0 640.000000 512.000000"
 preserveAspectRatio="xMidYMid meet">

<g transform="translate(0.000000,512.000000) scale(0.100000,-0.100000)"
fill="#666666" stroke="none">
<path d="M361 5104 c-169 -45 -301 -180 -346 -351 -23 -87 -23 -4299 0 -4386
45 -173 178 -307 350 -352 49 -12 143 -15 567 -15 l508 0 0 428 c0 352 3 438
15 487 67 256 330 415 580 350 172 -45 305 -179 350 -352 12 -46 15 -138 15
-485 l0 -428 508 0 c557 0 570 1 682 61 31 17 77 50 100 74 l44 45 -65 67
c-491 513 -609 1327 -286 1972 99 197 199 332 361 489 l96 93 0 947 c0 808 -2
956 -15 1005 -45 173 -178 307 -350 352 -87 22 -3030 22 -3114 -1z m853 -978
c63 -47 68 -71 64 -301 -3 -223 -5 -229 -72 -279 -25 -19 -44 -21 -231 -24
-230 -4 -254 1 -301 64 l-29 37 -3 191 c-4 220 -1 244 35 287 47 55 67 59 294
56 l206 -2 37 -29z m960 0 c63 -47 68 -71 64 -301 -3 -187 -5 -206 -24 -231
-50 -67 -56 -69 -279 -72 -230 -4 -254 1 -301 64 l-29 37 -3 191 c-4 220 -1
244 35 287 47 55 67 59 294 56 l206 -2 37 -29z m960 0 c63 -47 68 -71 64 -301
-3 -187 -5 -206 -24 -231 -50 -67 -56 -69 -279 -72 -230 -4 -254 1 -301 64
l-29 37 -3 191 c-4 220 -1 244 35 287 47 55 67 59 294 56 l206 -2 37 -29z
m-1920 -1280 c63 -47 68 -71 64 -301 -3 -223 -5 -229 -72 -279 -25 -19 -44
-21 -231 -24 -230 -4 -254 1 -301 64 l-29 37 -3 191 c-4 220 -1 244 35 287 47
55 67 59 294 56 l206 -2 37 -29z m960 0 c63 -47 68 -71 64 -301 -3 -223 -5
-229 -72 -279 -25 -19 -44 -21 -231 -24 -230 -4 -254 1 -301 64 l-29 37 -3
191 c-4 220 -1 244 35 287 47 55 67 59 294 56 l206 -2 37 -29z m960 0 c63 -47
68 -71 64 -301 -3 -223 -5 -229 -72 -279 -25 -19 -44 -21 -231 -24 -230 -4
-254 1 -301 64 l-29 37 -3 191 c-4 220 -1 244 35 287 47 55 67 59 294 56 l206
-2 37 -29z"/>
<path d="M4775 2869 c-319 -44 -601 -184 -830 -414 -210 -209 -343 -459 -402
-752 -24 -122 -24 -404 0 -526 59 -293 192 -543 402 -752 207 -208 437 -332
733 -397 131 -29 415 -31 542 -5 309 65 545 190 755 401 208 208 332 438 397
734 31 140 31 424 0 564 -65 296 -189 526 -397 734 -202 203 -446 336 -720
394 -116 24 -370 34 -480 19z m328 -723 c18 -8 169 -152 339 -322 331 -334
330 -332 313 -421 -5 -33 -47 -79 -323 -355 -342 -342 -340 -340 -429 -323
-49 9 -109 69 -118 118 -16 83 -5 100 168 275 l161 162 -462 0 c-514 0 -508
-1 -558 66 -24 31 -29 47 -29 95 0 62 17 94 69 133 27 20 41 21 504 24 l476 3
-161 162 c-135 135 -162 168 -168 200 -25 132 98 235 218 183z"/>
</g>
</svg>
